<svg width="62" height="54" viewBox="0 0 62 54" fill="none" xmlns="http://www.w3.org/2000/svg">
<rect width="61.0769" height="53.2174" rx="5" fill="#FFD400"/>
<path d="M43.6277 10.4346H49.1024V15.2048H43.6277V10.4346Z" fill="#251C1C"/>
<path d="M43.6277 17.5903H49.1024V22.3605H43.6277V17.5903Z" fill="#251C1C"/>
<path d="M35.413 10.4346H40.8877V15.2048H35.413V10.4346Z" fill="#251C1C"/>
<path d="M35.413 17.5903H40.8877V22.3605H35.413V17.5903Z" fill="#251C1C"/>
<path d="M46.3637 27.1304V34.2857H13.5156V15.2049H29.9396V12.8198H13.5156C12.7896 12.8198 12.0934 13.0711 11.58 13.5184C11.0667 13.9657 10.7783 14.5724 10.7783 15.2049V34.2857C10.7783 34.9182 11.0667 35.5249 11.58 35.9722C12.0934 36.4195 12.7896 36.6708 13.5156 36.6708H24.465V41.4409H18.9903V43.826H40.889V41.4409H35.4143V36.6708H46.3637C47.0897 36.6708 47.7859 36.4195 48.2993 35.9722C48.8126 35.5249 49.101 34.9182 49.101 34.2857V27.1304H46.3637ZM32.677 41.4409H27.2023V36.6708H32.677V41.4409Z" fill="#251C1C"/>
</svg>
