<svg width="62" height="50" viewBox="0 0 62 50" fill="none" xmlns="http://www.w3.org/2000/svg">
<rect x="0.659424" width="61.024" height="49.7329" rx="5" fill="#FFD400"/>
<path d="M28.385 39.7353C27.6941 39.5829 26.9959 39.4297 26.305 39.2773C26.1746 39.2453 26.0442 39.2133 25.9148 39.1755C25.4618 39.0431 25.2422 38.7287 25.3762 38.4174C25.5186 38.101 25.9238 37.9734 26.3845 38.0592C27.5527 38.2874 28.7224 38.5987 29.9117 38.6987C36.877 39.2807 42.5608 37.3878 46.511 32.8818C50.5543 28.2675 50.6661 23.3191 47.3839 18.2969C47.3307 18.2081 47.2607 18.1294 47.2295 18.0904C46.6608 18.1114 46.129 18.1837 45.6098 18.133C44.2142 18.0045 43.1244 17.1152 42.9283 16.0152C42.7367 14.9334 43.4819 13.8827 44.7453 13.4397C46.0171 12.9917 47.5294 13.2811 48.4361 14.1386C49.3298 14.9829 49.4254 16.1904 48.63 17.0875C48.4447 17.2984 48.4523 17.4356 48.6058 17.6479C50.4526 20.214 51.2818 22.9655 51.0944 25.8965C51.0875 25.9846 51.1037 26.0694 51.1125 26.1533C51.014 26.753 50.9146 27.3585 50.8161 27.9582C50.5896 28.6032 50.3844 29.2564 50.1209 29.8974C47.739 35.6827 40.6435 39.8397 32.9086 39.9976C32.19 40.014 31.4697 39.9947 30.754 39.9937C29.9619 39.9073 29.1771 39.8217 28.385 39.7353ZM45.8436 16.9851C46.7403 17.077 47.553 16.5789 47.6678 15.8802C47.7825 15.1815 47.1443 14.5252 46.2569 14.4225C45.3537 14.324 44.5252 14.8262 44.415 15.5432C44.3067 16.2485 44.9468 16.8932 45.8436 16.9851Z" fill="#251C1C"/>
<path d="M35.6416 10.1817C36.3338 10.3343 37.0335 10.4876 37.7257 10.6402C37.8425 10.6648 37.9648 10.7018 38.0806 10.7322C38.5484 10.8722 38.7437 11.1543 38.6131 11.4898C38.4844 11.8136 38.0867 11.9362 37.6187 11.8436C36.4111 11.6111 35.2046 11.3254 33.9723 11.197C27.0701 10.4678 20.0108 13.2246 16.6671 17.9989C13.5197 22.4982 13.5706 27.0619 16.6243 31.6389C16.6667 31.7028 16.71 31.7609 16.7533 31.8189C16.7653 31.838 16.7856 31.8521 16.7598 31.8256C17.3295 31.8047 17.8624 31.7324 18.3751 31.7824C19.766 31.9104 20.8721 32.8076 21.0634 33.8953C21.2557 34.9773 20.5084 36.0338 19.2436 36.4708C17.9399 36.9154 16.4607 36.6356 15.552 35.7778C14.6563 34.9332 14.5611 33.7196 15.3568 32.8284C15.5425 32.6175 15.5274 32.4795 15.3735 32.2671C13.5372 29.7018 12.7056 26.9497 12.8916 24.0241C12.8985 23.936 12.8822 23.8512 12.8743 23.7614C12.9728 23.1617 13.0722 22.5561 13.1707 21.9563C13.2054 21.883 13.2401 21.8098 13.2674 21.7357C13.5063 21.0623 13.7026 20.3725 14 19.7114C16.4692 14.1008 23.5442 10.0536 31.1092 9.91852C31.8283 9.90804 32.5509 9.92165 33.268 9.92281C34.0616 10.0094 34.8479 10.0951 35.6416 10.1817ZM18.1784 32.9346C17.2818 32.8309 16.4547 33.3156 16.3242 34.0186C16.1927 34.7274 16.8452 35.3972 17.7502 35.4959C18.6413 35.5872 19.4619 35.0958 19.585 34.392C19.7007 33.6874 19.0749 33.0383 18.1784 32.9346Z" fill="#251C1C"/>
<path d="M22.4936 19.4758C22.2869 19.2658 22.0064 18.9995 21.7428 18.7229C21.3698 18.3316 21.4205 18.0228 21.915 17.7201C23.0642 17.0113 24.2209 16.3032 25.3849 15.596C25.8868 15.2941 26.2636 15.3412 26.6569 15.7468C26.9022 15.9973 27.1466 16.2536 27.3919 16.504C27.4048 16.5175 27.4335 16.5267 27.3781 16.4965C28.3359 16.3108 29.2463 16.1381 30.1439 15.9519C30.246 15.9267 30.3776 15.8141 30.3986 15.7318C30.478 15.4322 30.4991 15.1201 30.5646 14.813C30.6418 14.4345 30.9549 14.2269 31.4289 14.2786C32.9481 14.4382 34.4664 14.6038 35.9837 14.7754C36.4725 14.8287 36.7076 15.0961 36.657 15.4956C36.6157 15.7933 36.5669 16.0903 36.5108 16.3864C36.479 16.534 36.5265 16.6118 36.7103 16.6862C37.5201 17.0345 38.3195 17.3997 39.2114 17.7993C39.4648 17.6335 39.7956 17.4096 40.1392 17.1993C40.6253 16.9017 41.0179 16.9445 41.3918 17.3298C42.2857 18.2676 43.1797 19.2053 44.0736 20.1431C44.4337 20.5208 44.3746 20.8348 43.9053 21.1221C43.5616 21.3325 43.2051 21.5293 42.9305 21.6868C43.174 22.4992 43.3922 23.2362 43.6272 23.9631C43.6525 24.0384 43.7963 24.1266 43.9 24.1379C44.2674 24.1961 44.6407 24.2187 45.01 24.265C45.5275 24.3275 45.7792 24.5847 45.711 25.0004C45.5214 26.2008 45.3254 27.3944 45.121 28.5932C45.0517 29.0148 44.7416 29.2046 44.2138 29.1592C43.8425 29.1247 43.4751 29.0665 43.1009 29.0499C42.9888 29.0437 42.8197 29.1099 42.7625 29.1822C42.3023 29.8272 41.8559 30.4797 41.3514 31.2105C41.5591 31.4145 41.848 31.6757 42.1116 31.9523C42.4718 32.3301 42.4201 32.6448 41.9581 32.933C40.7931 33.6461 39.6281 34.3593 38.463 35.0725C37.9769 35.37 37.5928 35.3221 37.2114 34.9359C36.9991 34.7133 36.7963 34.4796 36.5663 34.2732C36.4936 34.2108 36.3198 34.1677 36.2112 34.1861C35.3778 34.3491 34.5498 34.5247 33.7273 34.7131C33.6177 34.7374 33.4871 34.8441 33.4661 34.9264C33.3867 35.226 33.3582 35.5372 33.3001 35.8452C33.2229 36.2237 32.9108 36.4254 32.4358 36.3796C30.9166 36.22 29.3983 36.0544 27.881 35.8828C27.3922 35.8295 27.1572 35.5621 27.2077 35.1626C27.249 34.8649 27.32 34.5704 27.3466 34.271C27.3528 34.1871 27.2918 34.0535 27.2078 34.0141C26.3871 33.6405 25.5571 33.2779 24.6356 32.8751C24.3822 33.0409 24.0505 33.2707 23.7068 33.4811C23.2374 33.7684 22.8533 33.7205 22.4858 33.3419C21.5844 32.4033 20.6895 31.4715 19.804 30.5286C19.4374 30.1441 19.4965 29.8302 19.9836 29.5267C20.3189 29.3214 20.666 29.1356 20.9323 28.9833C20.6888 28.1709 20.4706 27.4338 20.2356 26.707C20.2103 26.6317 20.0664 26.5435 19.9637 26.5262C19.5963 26.468 19.2231 26.4454 18.8538 26.3991C18.3289 26.3358 18.0835 26.0854 18.1518 25.6697C18.3414 24.4693 18.5374 23.2757 18.7418 22.0769C18.812 21.6493 19.137 21.4611 19.6786 21.5142C20.0499 21.5486 20.4173 21.6068 20.7915 21.6234C20.8887 21.628 21.0431 21.5602 21.0918 21.493C21.5585 20.8548 21.9985 20.1955 22.4936 19.4758ZM19.7366 25.2925C19.9588 25.3167 20.144 25.3369 20.3291 25.3571C20.5143 25.3773 20.7004 25.3916 20.8846 25.4177C21.3714 25.4829 21.5915 25.658 21.6411 26.0442C21.762 27.0065 22.0631 27.9279 22.5674 28.805C22.7611 29.1405 22.6747 29.391 22.3049 29.6227C22.0022 29.8133 21.6812 29.9778 21.3814 30.1506C22.0567 30.859 22.6859 31.5261 23.3667 32.2471C23.6304 32.0643 23.9118 31.8653 24.2052 31.6857C24.6253 31.4232 24.9338 31.4267 25.3475 31.7076C26.2442 32.3071 27.2468 32.767 28.3374 33.1036C28.8393 33.2611 28.9942 33.4654 28.9323 33.8878C28.892 34.1796 28.8358 34.4758 28.7861 34.7786C29.8452 34.8941 30.8672 35.0056 31.8745 35.1155C31.8942 35.0874 31.9193 35.072 31.9222 35.0542C31.9755 34.7759 32.0203 34.5027 32.0662 34.2236C32.1409 33.8147 32.3582 33.6389 32.8626 33.5972C34.0467 33.5027 35.1781 33.2694 36.2683 32.8745C36.7172 32.7119 37.0234 32.7755 37.3182 33.0918C37.5487 33.3406 37.7551 33.5989 37.9451 33.8191C38.8429 33.2642 39.6653 32.7554 40.5286 32.227C40.3208 32.023 40.0716 31.7963 39.8475 31.5542C39.5398 31.2245 39.5427 30.9769 39.8659 30.6616C40.6103 29.9388 41.1784 29.1424 41.5997 28.2756C41.8061 27.8447 42.0507 27.7324 42.6368 27.7903C42.9923 27.829 43.3404 27.867 43.6959 27.9058C43.8373 27.0447 43.9709 26.2311 44.1094 25.3879C43.7095 25.3442 43.3308 25.309 42.9466 25.261C42.481 25.2042 42.2536 25.0283 42.2094 24.6547C42.0884 23.6925 41.7874 22.7711 41.2915 21.8888C41.0933 21.5347 41.1723 21.2834 41.5578 21.0474C41.8596 20.8627 42.189 20.6931 42.4878 20.5262C41.7987 19.8103 41.161 19.1483 40.4848 18.4459C40.223 18.6168 39.9416 18.8159 39.6482 18.9954C39.2208 19.2571 38.928 19.2493 38.5059 18.9736C37.6147 18.3868 36.6353 17.9233 35.5511 17.5935C34.9984 17.4244 34.8592 17.2157 34.9308 16.7339C34.9767 16.4548 35.0235 16.1698 35.0683 15.8966C33.987 15.7787 32.9724 15.668 31.9577 15.5573C31.9361 15.5973 31.9257 15.6143 31.9228 15.6321C31.8789 15.8993 31.835 16.1665 31.7837 16.433C31.7032 16.8776 31.5036 17.0371 30.9454 17.0851C29.7845 17.176 28.6753 17.4117 27.6093 17.7972C27.1279 17.9744 26.8365 17.9124 26.5095 17.5624C26.2844 17.3262 26.0845 17.0747 25.8945 16.8545C25.006 17.3984 24.1772 17.9004 23.3046 18.4399C23.5316 18.6641 23.7799 18.8967 24.0178 19.1464C24.3137 19.4567 24.3097 19.7101 23.9959 20.0144C23.2421 20.7483 22.6554 21.5668 22.2302 22.4574C22.0567 22.8253 21.7879 22.9471 21.3055 22.9006C20.9268 22.8653 20.55 22.8182 20.1501 22.7746C20.0106 23.6238 19.8761 24.4433 19.7366 25.2925Z" fill="#251C1C"/>
<path d="M23.3702 35.2395C23.7696 35.2885 24.075 35.5878 24.0046 35.8788C23.9351 36.1644 23.5656 36.3467 23.1662 36.2977C22.752 36.2471 22.4662 35.9662 22.5375 35.6699C22.5996 35.3835 22.9782 35.1913 23.3702 35.2395Z" fill="#251C1C"/>
<path d="M40.1607 12.8015C40.2237 12.5098 40.5857 12.3267 40.9917 12.3818C41.3911 12.4308 41.6778 12.7064 41.6231 12.9936C41.5666 13.2915 41.164 13.4919 40.7589 13.4314C40.3539 13.371 40.0968 13.0986 40.1607 12.8015Z" fill="#251C1C"/>
<path d="M31.1368 30.1734C27.7481 29.8038 25.3358 27.2359 25.7896 24.4725C26.2434 21.7091 29.3929 19.7417 32.7891 20.1121C36.1778 20.4817 38.59 23.0496 38.1362 25.813C37.6824 28.5763 34.5339 30.5377 31.1368 30.1734ZM27.2815 24.6414C26.9451 26.7361 28.783 28.6837 31.3442 28.9569C33.9128 29.2308 36.3015 27.7318 36.6369 25.6433C36.9733 23.5486 35.1354 21.601 32.5742 21.3278C30.0131 21.0546 27.6168 22.5529 27.2815 24.6414Z" fill="#251C1C"/>
</svg>
